<?xml version="1.0" encoding="UTF-8"?> <!-- Creator: CorelDRAW 2017 --> <svg xmlns="http://www.w3.org/2000/svg" xmlns:xlink="http://www.w3.org/1999/xlink" xml:space="preserve" width="1181px" height="472px" style="shape-rendering:geometricPrecision; text-rendering:geometricPrecision; image-rendering:optimizeQuality; fill-rule:evenodd; clip-rule:evenodd" viewBox="0 0 1181 472.4"> <defs> <style type="text/css"> <![CDATA[ .fil0 {fill:#00A34F;fill-rule:nonzero} ]]> </style> </defs> <g id="Слой_x0020_1"> <metadata id="CorelCorpID_0Corel-Layer"></metadata> <g id="_1826829048720"> <path class="fil0" d="M467.93 222.96c1.66,1.11 2.5,2.42 2.5,4.09 0,1.59 -0.56,3.25 -1.67,4.85l-16.21 20.29c-1.11,1.11 -2.56,1.73 -4.5,2.01 -1.87,0.28 -3.39,-0.14 -4.43,-1.18l-12.19 -9.76 0 160.77c0,3.74 -1.25,6.86 -3.68,9.28 -2.42,2.43 -5.54,3.68 -9.28,3.68l-136.39 0c-1.66,0 -3.12,-0.7 -4.5,-2.02 -1.32,-1.38 -2.01,-2.84 -2.01,-4.5l0 -103.9 -51.95 0 0 103.9c0,1.66 -0.7,3.12 -2.01,4.5 -1.39,1.32 -2.84,2.02 -4.5,2.02l-136.33 0c-3.81,0 -6.92,-1.25 -9.35,-3.68 -2.42,-2.42 -3.67,-5.54 -3.67,-9.28l0 -160.77 -12.19 9.76c-1.04,1.04 -2.56,1.46 -4.43,1.18 -1.94,-0.28 -3.4,-0.9 -4.51,-2.01l-16.21 -20.29c-1.1,-1.6 -1.59,-3.26 -1.59,-4.85 0,-1.67 0.76,-2.98 2.43,-4.09l198.04 -162.37c5.95,-4.85 12.74,-7.27 20.29,-7.27 7.55,0 14.34,2.42 20.3,7.27l122.61 99.89 0 -48.7c0,-1.66 0.62,-3.12 2.01,-4.5 1.31,-1.31 2.83,-2.01 4.43,-2.01l25.98 0c1.66,0 3.11,0.7 4.5,2.01 1.31,1.38 2.01,2.84 2.01,4.5l0 81.18 36.5 30zm-75.43 155.02l0 -167.21 -138.82 -113.61c-2.7,-2.14 -5.47,-2.14 -8.17,0l-138.75 113.61 0 167.21 77.93 0 0 -103.9c0,-1.59 0.62,-3.05 2,-4.43 1.32,-1.32 2.85,-2.01 4.44,-2.01l116.93 0c1.59,0 3.11,0.69 4.43,2.01 1.38,1.38 2.08,2.84 2.08,4.43l0 103.9 77.93 0z"></path> <path class="fil0" d="M529.38 227.97l0 -124.55 28.65 0 38.43 52.49 36.3 -52.49 26.87 0 0 124.55 -28.47 0 0 -79.36 -34.7 48.58 -4.09 0 -34.52 -48.04 0 78.82 -28.47 0zm238.08 -80.07l-31.13 80.07c-5.7,14 -10.8,23.43 -15.31,28.3 -4.5,4.86 -9.9,7.29 -16.19,7.29 -6.76,0 -13.11,-2.49 -19.04,-7.47l8.54 -20.11c2.85,1.9 5.4,2.85 7.65,2.85 3.32,0 5.87,-2.2 7.65,-6.59l1.78 -4.27 -35.76 -80.07 32.2 0 13.71 36.66c0.71,1.9 1.72,5.57 3.02,11.03 0.47,-4.75 1.13,-8.48 1.96,-11.21l10.5 -36.48 30.42 0zm9.79 115.66l0 -115.66 26.69 0 0 6.05c5.46,-5.46 12.87,-8.18 22.25,-8.18 10.67,0 19.3,3.82 25.88,11.47 6.59,7.65 9.88,17.47 9.88,29.45 0,12.46 -3.97,22.81 -11.92,31.05 -7.95,8.25 -18.33,12.37 -31.14,12.37 -6.05,0 -11.03,-0.83 -14.95,-2.49l0 35.94 -26.69 0zm40.57 -92.88c-4.98,0 -9.61,2.37 -13.88,7.12l0 24.37c3.44,2.02 7.59,3.03 12.46,3.03 5.57,0 9.81,-1.69 12.72,-5.07 2.91,-3.38 4.36,-7.68 4.36,-12.9 0,-4.87 -1.39,-8.84 -4.18,-11.93 -2.79,-3.08 -6.61,-4.62 -11.48,-4.62zm59.26 57.29l0 -80.07 24.02 0 24.02 27.23 22.24 -27.23 23.31 0 0 80.07 -26.69 0 0 -39.32 -19.39 22.24 -0.54 0 -20.28 -22.24 0 39.32 -26.69 0zm121.71 -54.98l-6.59 -19.4c3.44,-2.13 7.92,-3.97 13.44,-5.51 5.51,-1.54 10.94,-2.31 16.28,-2.31 11.86,0 20.37,2.84 25.53,8.54 5.16,5.69 7.74,14.17 7.74,25.44l0 48.22 -23.13 0 0 -7.29c-3.91,5.57 -10.91,8.36 -21,8.36 -7.47,0 -13.55,-2.22 -18.23,-6.67 -4.69,-4.45 -7.03,-10.65 -7.03,-18.6 0,-8.66 2.7,-15.24 8.09,-19.75 5.4,-4.51 12.31,-6.76 20.73,-6.76 6.65,0 11.87,1.48 15.66,4.45 0.48,-9.14 -3.2,-13.7 -11.03,-13.7 -5.22,0 -12.04,1.66 -20.46,4.98zm21.35 33.81c4.74,0 8.13,-1.37 10.14,-4.09l0 -4.99c-2.49,-1.78 -5.87,-2.66 -10.14,-2.66 -2.25,0 -4.09,0.53 -5.52,1.6 -1.42,1.06 -2.13,2.55 -2.13,4.45 0,1.77 0.71,3.17 2.13,4.18 1.43,1 3.27,1.51 5.52,1.51zm105.34 21.17l0 -27.58 -25.8 0 0 27.58 -26.69 0 0 -80.07 26.69 0 0 27.58 25.8 0 0 -27.58 26.69 0 0 80.07 -26.69 0zm-596.1 188.98l0 -124.56 28.47 0 0 54.27 40.75 -54.27 34.16 0 -46.8 57.47 50.54 67.09 -36.12 0 -42.53 -59.26 0 59.26 -28.47 0zm167.62 0l0 -53.38 -14.06 0 -0.35 3.55c-1.43,14 -3.59,24.71 -6.5,32.12 -2.9,7.42 -6.94,12.58 -12.1,15.48 -5.16,2.91 -12.37,4.36 -21.62,4.36l-2.31 -25.98c4.39,0.48 8.12,-1.75 11.21,-6.67 3.08,-4.92 4.92,-13.14 5.51,-24.64l1.25 -24.92 65.66 0 0 80.08 -26.69 0zm72.96 0l-26.7 0 0 -80.08 26.7 0 0 41.82 28.47 -41.82 26.69 0 0 80.08 -26.69 0 0 -41.82 -28.47 41.82zm74.73 0l0 -80.08 26.69 0 0 37.02 21.71 -37.02 33.45 0 -25.98 38.08 29.9 42 -34.52 0 -24.56 -37.37 0 37.37 -26.69 0z"></path> </g> </g> </svg> 